<?xml version="1.0" encoding="UTF-8" standalone="no"?>
<!-- Created with Inkscape (http://www.inkscape.org/) -->

<svg
   xmlns:dc="http://purl.org/dc/elements/1.1/"
   xmlns:cc="http://creativecommons.org/ns#"
   xmlns:rdf="http://www.w3.org/1999/02/22-rdf-syntax-ns#"
   xmlns:svg="http://www.w3.org/2000/svg"
   xmlns="http://www.w3.org/2000/svg"
   xmlns:sodipodi="http://sodipodi.sourceforge.net/DTD/sodipodi-0.dtd"
   xmlns:inkscape="http://www.inkscape.org/namespaces/inkscape"
   id="svg3360"
   version="1.1"
   inkscape:version="0.91 r13725"
   xml:space="preserve"
   width="76.130875"
   height="76.140121"
   viewBox="0 0 76.130875 76.14012"
   sodipodi:docname="opvizor_negative_blue.svg"><metadata
     id="metadata3366"><rdf:RDF><cc:Work
         rdf:about=""><dc:format>image/svg+xml</dc:format><dc:type
           rdf:resource="http://purl.org/dc/dcmitype/StillImage" /><dc:title></dc:title></cc:Work></rdf:RDF></metadata><defs
     id="defs3364" /><sodipodi:namedview
     pagecolor="#ffffff"
     bordercolor="#666666"
     borderopacity="1"
     objecttolerance="10"
     gridtolerance="10"
     guidetolerance="10"
     inkscape:pageopacity="0"
     inkscape:pageshadow="2"
     inkscape:window-width="1036"
     inkscape:window-height="656"
     id="namedview3362"
     showgrid="false"
     fit-margin-top="0"
     fit-margin-left="0"
     fit-margin-right="0"
     fit-margin-bottom="0"
     inkscape:zoom="3.0114364"
     inkscape:cx="-26.321335"
     inkscape:cy="36.350359"
     inkscape:window-x="362"
     inkscape:window-y="217"
     inkscape:window-maximized="0"
     inkscape:current-layer="g3368" /><g
     id="g3368"
     inkscape:groupmode="layer"
     inkscape:label="ink_ext_XXXXXX"
     transform="matrix(1.25,0,0,-1.25,0,109.21338)"><path
       inkscape:connector-curvature="0"
       id="path3384"
       style="fill:#00bedd;fill-opacity:1;fill-rule:nonzero;stroke:none"
       d="m 43.6773,52.1863 0,15.6266 c 0,1.2555 -1.0449,2.2859 -2.316,2.2859 l -24.1265,0 0,-2.2402 c 0,-0.0227 0,-0.0457 0,-0.0457 l 0,-21.8348 c 0,-1.2695 1.0293,-2.3144 2.3074,-2.3144 l 15.6269,0 8.5082,0 0,8.5226" /><path
       inkscape:connector-curvature="0"
       id="path3386"
       style="fill:#8c8c8c;fill-opacity:1;fill-rule:nonzero;stroke:none"
       d="m 60.7629,35.6738 c 0,-4.9843 -4.0445,-9.0047 -9.0133,-9.0047 -4.9828,0 -9.0191,4.0204 -9.0191,9.0047 0,4.9754 4.0363,9.0043 9.0191,9.0043 4.9688,0 9.0133,-4.0289 9.0133,-9.0043" /><path
       inkscape:connector-curvature="0"
       id="path3390"
       style="fill:#ffffff;fill-opacity:1;fill-rule:nonzero;stroke:none"
       d="m 39.8336,35.6738 c 0,0.8375 0.0887,1.6539 0.2531,2.4422 l -24.6336,0 c -2.1351,0 -3.8867,1.7434 -3.8867,3.8856 l 0,29.9984 c 0,2.1348 1.7516,3.8777 3.8867,3.8777 l 29.9985,0 c 2.1339,0 3.8851,-1.7429 3.8851,-3.8777 l 0,-24.673 c 0.7797,0.1597 1.5867,0.2445 2.4137,0.2445 3.6762,0 6.968,-1.6703 9.1543,-4.2938 l 0,31.7063 c 0,6.8094 -5.5695,12.3867 -12.3793,12.3867 l -36.1543,0 C 5.57734,87.3707 0,81.7934 0,74.984 L 0,38.8301 C 0,32.0273 5.57734,26.4586 12.3711,26.4586 l 31.8375,0 c -2.6703,2.1793 -4.375,5.493 -4.375,9.2152" /></g></svg>